<?xml version="1.0" encoding="utf-8"?>
<!-- Generator: Adobe Illustrator 21.0.0, SVG Export Plug-In . SVG Version: 6.00 Build 0)  -->
<svg version="1.1" id="图层_1" xmlns="http://www.w3.org/2000/svg" xmlns:xlink="http://www.w3.org/1999/xlink" x="0px" y="0px"
	 viewBox="0 0 1000 1000" style="enable-background:new 0 0 1000 1000;" xml:space="preserve">
<style type="text/css">
	.st0{fill:#F5B619;}
	.st1{fill:#F4ED4F;}
	.st2{fill:#A7CF5B;}
	.st3{fill:#8AD0E3;}
	.st4{fill:#77C6B0;}
	.st5{fill:#B37CB4;}
	.st6{fill:#FFFFFF;}
	.st7{fill:#EB5C29;}
	.st8{fill:#74AEBE;}
	.st9{fill:#D3D1D2;}
	.st10{fill:#64A694;}
	.st11{fill:#946796;}
	.st12{fill:#EF8CA4;}
	.st13{fill:#565656;}
	.st14{fill:#F7D426;}
	.st15{fill:#DB8D0F;}
	.st16{fill:#EB6043;}
	.st17{fill:none;stroke:#565656;stroke-width:15;stroke-linecap:round;stroke-miterlimit:10;}
	.st18{fill:none;stroke:#FFFFFF;stroke-width:15;stroke-linecap:round;stroke-miterlimit:10;}
	.st19{fill:#8CD3B6;stroke:#565656;stroke-width:15;stroke-linecap:round;stroke-miterlimit:10;}
</style>
<g>
	<path class="st0" d="M711.1,191.3c-87.9,14.7-189.9,37.2-290,55c-36.9,6.6-70.3,8.3-100.4,6.7c3.9-11.9,8.3-23.5,13.9-34.7
		c9.6-19.4,24.8-31.7,41.4-42.9c14.4-1.2,29.5-3.1,45.1-5.9c66-11.8,132.7-25.5,195.7-37.7c6.9,4.6,14.4,8.4,22.7,10.8
		C666.7,150.7,690.4,167.9,711.1,191.3z"/>
</g>
<g>
	<path class="st1" d="M759.4,267.1c-97.5,13.5-219.2,41.2-338.3,62.5c-47.5,8.5-89.3,9-125.7,4.4l14-42.3
		c3.5-12.9,7.1-25.9,11.2-38.6c30.1,1.7,63.5-0.1,100.4-6.7c100.1-17.9,202.1-40.3,290-55C729.5,212.2,745.5,238.1,759.4,267.1z"/>
</g>
<g>
	<path class="st2" d="M793.5,339.6c-102.3,11-239,42.9-372.4,66.7c-60.5,10.8-111.6,8.6-154.2-0.4c5.8-7.9,10.4-17.9,12.7-24.6
		l15.8-47.3c36.4,4.6,78.2,4.1,125.7-4.4c119.1-21.3,240.8-49,338.3-62.5c8.3,17.3,15.9,35.7,22.7,54.7
		C784.6,328.7,788.5,334.7,793.5,339.6z"/>
</g>
<g>
	<path class="st3" d="M836.6,379c7.3,12.2,8.7,26.1,7.5,40c-104.7,3.2-266.1,42.4-423,70.4c-117.7,21-200.1-7-252.4-39.1v0
		c11.7-28,44.3-45.2,76.4-33.1c0.2,0.1,0.3,0.1,0.5,0.2c0.4,0.2,0.8,0.3,1.2,0.4c6.9,2.3,14.1-3.7,20.1-11.9
		c42.5,9,93.7,11.2,154.2,0.4c133.4-23.8,270.1-55.7,372.4-66.7c5.5,5.4,12.2,9.3,19.4,11.5c0,0-0.1,0-0.1,0
		c-1.8,0.5-3.5,1.1-5.3,1.7C819.3,357.7,829.5,366.9,836.6,379z"/>
</g>
<g>
	<path class="st3" d="M911.5,424.2c-8.3-2.1-17.5-3.5-27.6-4.3c1.4-14.2,0.1-28.5-7.4-41c-8.3-14-20.7-24.2-35-28.2
		c25.9-7.2,49.7,5.5,63.1,28C913,392.5,913.7,408.5,911.5,424.2z"/>
</g>
<g>
	<path class="st4" d="M421.1,489.4c156.9-28,318.3-67.2,423-70.4c-1,10.7-3.6,21.4-6.3,31.3c-4.4,15.5-11.5,31.7-19.5,46.9
		c-6.5,0.5-13.2,1.1-20.1,1.8c-1.7,0.2-3.4,0.4-5.2,0.5c-21.7,2.3-45,5.6-69.5,9.6c-1.1,0.2-2.2,0.4-3.3,0.5
		c-1.7,0.3-3.5,0.6-5.3,0.9c-12.8,2.1-25.8,4.4-39.2,6.8c-2.3,0.4-4.7,0.8-7,1.3c-2.3,0.4-4.7,0.9-7.1,1.3c-2.6,0.5-5.3,1-7.9,1.5
		c-4.2,0.8-8.4,1.6-12.7,2.4c-0.3,0.1-0.6,0.1-0.9,0.2c-4,0.8-7.9,1.5-11.9,2.3c-2.1,0.4-4.3,0.8-6.4,1.2c-3.6,0.7-7.2,1.4-10.8,2.1
		c-0.7,0.1-1.4,0.3-2.1,0.4c-4.2,0.8-8.4,1.6-12.6,2.5c-0.1,0-0.3,0.1-0.4,0.1c-4.4,0.8-8.7,1.7-13.1,2.6c-0.5,0.1-0.9,0.2-1.4,0.3
		c-4,0.8-7.9,1.6-11.9,2.3c-1,0.2-2.1,0.4-3.1,0.6c-2.5,0.5-5,1-7.5,1.5c-0.9,0.2-1.8,0.3-2.7,0.5c-8.9,1.8-17.8,3.5-26.8,5.3
		c-2.9,0.6-5.7,1.1-8.5,1.7c-5.1,1-10.2,2-15.3,3c-3.3,0.6-6.6,1.3-9.9,1.9c-4.5,0.9-9,1.8-13.5,2.6c-11.3,2.2-22.6,4.3-33.9,6.4
		c-6.5,1.2-13,2.4-19.4,3.6c-2.6,0.5-5.1,0.9-7.7,1.4C317,584.8,240.4,565,188,537.9v0c-11.6-20-18.4-34.6-22.3-51.3
		c-3-13-1.6-25.5,3-36.3C221,482.4,303.4,510.4,421.1,489.4z"/>
</g>
<g>
	<path class="st4" d="M859,495.6c-2.9,0-5.8,0-8.7,0.1C853.2,495.6,856.2,495.5,859,495.6z"/>
</g>
<g>
	<path class="st4" d="M911.5,424.2c-1.2,8.8-3.4,17.6-5.7,25.8c-4.4,15.5-11.5,31.6-19.5,46.8c-1.1-0.1-2.3-0.2-3.4-0.3
		c-1.1-0.1-2.3-0.2-3.5-0.3c-1.3-0.1-2.6-0.2-3.9-0.2c-1-0.1-2-0.1-3.1-0.2c-1.3-0.1-2.7-0.1-4-0.1c-1.1,0-2.3-0.1-3.5-0.1
		c-0.9,0-1.8,0-2.7,0c-1.1,0-2.3,0-3.4,0c7.7-14.8,14.5-30.3,18.7-45.4c2.7-9.6,5.2-20,6.3-30.3C894,420.7,903.3,422.2,911.5,424.2z
		"/>
</g>
<g>
	<path class="st5" d="M773.7,566.2c-2.5,3.2-3.5,7.2-3,11.2c0.3,2.6,0.6,5.2,1,7.8c-99.5,12.8-226.5,41.9-350.6,64.1
		c-82.8,14.8-148.1,5.3-197.8-12.8c1.6-6.2,3.2-11.6,4.4-15.8c2.2-7.3,1.2-15.3-2.8-21.8c-15.8-26.1-27.8-45.2-36.9-61
		c52.4,27.1,129,46.9,233.1,28.3c2.6-0.5,5.1-0.9,7.7-1.4c6.5-1.2,13-2.3,19.4-3.6c11.3-2.1,22.6-4.2,33.9-6.4
		c4.5-0.9,9-1.7,13.5-2.6c3.3-0.6,6.6-1.3,9.9-1.9c5.1-1,10.2-2,15.3-3c2.9-0.6,5.7-1.1,8.5-1.7c6.7-1.3,13.4-2.6,20.1-4
		c2.2-0.4,4.5-0.9,6.7-1.3c0.9-0.2,1.8-0.3,2.7-0.5c2.5-0.5,5-1,7.5-1.5c1-0.2,2.1-0.4,3.1-0.6c4-0.8,7.9-1.6,11.9-2.3
		c0.5-0.1,0.9-0.2,1.4-0.3c4.4-0.9,8.8-1.7,13.1-2.6c0.1,0,0.3,0,0.4-0.1c4.2-0.8,8.5-1.6,12.6-2.5c0.7-0.1,1.4-0.3,2.1-0.4
		c3.6-0.7,7.2-1.4,10.8-2.1c2.2-0.4,4.3-0.8,6.4-1.2c4-0.8,8-1.5,11.9-2.3c0.3-0.1,0.6-0.1,0.9-0.2c4.2-0.8,8.5-1.6,12.7-2.4
		c2.7-0.5,5.3-1,7.9-1.5c2.4-0.4,4.7-0.9,7.1-1.3c2.4-0.4,4.7-0.9,7-1.3c13.3-2.4,26.4-4.7,39.2-6.8c1.8-0.3,3.5-0.6,5.3-0.9
		c1.1-0.2,2.2-0.4,3.3-0.5c24.5-3.9,47.8-7.2,69.5-9.6c1.7-0.2,3.5-0.4,5.2-0.5c6.9-0.7,13.5-1.3,20.1-1.8
		C801.9,528.2,782,555.5,773.7,566.2z"/>
</g>
<g>
	<path class="st5" d="M850.3,495.6c3-0.1,5.9-0.1,8.7-0.1C856.1,495.5,853.2,495.6,850.3,495.6z"/>
</g>
<g>
	<path class="st5" d="M841.8,565.9c-2.4,3.2-3.5,7.2-3,11.2c0.1,0.7,0.2,1.3,0.3,2c-8.9,0.4-18.2,1-27.9,1.8
		c-0.2-1.2-0.3-2.3-0.4-3.5c-0.5-4,0.6-8,3-11.2c8.3-11,28.8-39,45.3-70.6c1.2,0,2.3,0,3.4,0c0.9,0,1.8,0,2.7,0c1.2,0,2.3,0,3.5,0.1
		c1.3,0,2.7,0.1,4,0.1c1,0,2,0.1,3.1,0.2c1.3,0.1,2.6,0.1,3.9,0.2c1.2,0.1,2.3,0.2,3.5,0.3c1.1,0.1,2.3,0.2,3.4,0.3
		C870.1,527.9,850.1,555.2,841.8,565.9z"/>
</g>
<g>
	<path class="st6" d="M851.2,704.4c-0.5-16.3-1.7-32.6-3.2-48.8c-2.4-25.5-5.7-51-8.9-76.5c-104.8,4.3-263.6,42.7-418,70.2
		c-82.8,14.8-148.1,5.3-197.8-12.8c-4.7,17.8-10.5,43.1-14,71.3c-3.3,26.1-4.7,54.7-1.7,82.4c1.3,11.8,3.4,23.5,6.4,34.7
		c6.2,22.6,18.6,41.8,35,56.4c27.4,24.5,65.9,35.8,104.3,27.7c31.1-6.5,82.3-13.2,161.5-13.2c140,0,145.5,29.1,243.4,0.4
		c33.6-9.8,60.8-45.9,75.8-77.6c0.4-0.9,0.8-1.8,1.2-2.7c10.9-24.3,15-50.7,16-77.3C851.7,727.2,851.6,715.8,851.2,704.4z"/>
</g>
<g>
	<path class="st7" d="M616.8,131.9c-63,12.2-129.8,26-195.7,37.7c-15.7,2.8-30.7,4.7-45.1,5.9c9.8-6.6,20.1-12.8,30.2-19.8
		c28.3-19.8,55.6-41.1,81.7-63.8c10.7-9.3,20.2-15.1,28.8-18.2C558.2,58.8,579.3,107.1,616.8,131.9z"/>
</g>
<g>
	<path class="st8" d="M884,419.9c-12.1-1-25.5-1.3-39.9-0.8c1.3-13.9-0.2-27.8-7.5-40c-7.1-12.1-17.3-21.3-29.1-26.2
		c1.8-0.6,3.5-1.2,5.3-1.7c0,0,0.1,0,0.1,0c8.6,2.6,18.1,2.8,27.4,0c0.2-0.1,0.4-0.1,0.6-0.2c0.2-0.1,0.5-0.1,0.7-0.2
		c14.4,4,26.7,14.2,35,28.2C884.1,391.4,885.4,405.7,884,419.9z"/>
</g>
<g>
	<path class="st9" d="M812.9,351.1c10-2.9,19.7-2.9,28.7-0.4c-0.2,0.1-0.5,0.1-0.7,0.2c-0.2,0.1-0.4,0.1-0.6,0.2
		C831,353.9,821.5,353.7,812.9,351.1z"/>
</g>
<g>
	<path class="st10" d="M884,419.9c-1,10.4-3.6,20.7-6.3,30.3c-4.3,15-11,30.6-18.7,45.4c-2.8,0-5.8,0-8.7,0.1c-1.4,0-2.8,0-4.2,0.1
		c-1,0-1.9,0-2.9,0.1c-0.8,0-1.6,0-2.4,0.1c-2,0.1-4.1,0.2-6.2,0.3c-0.4,0-0.8,0-1.1,0.1c-0.8,0-1.6,0.1-2.5,0.1
		c-1.7,0.1-3.3,0.2-5,0.3c-1.6,0.1-3.1,0.2-4.7,0.3c-1,0.1-2,0.1-3,0.2c8-15.2,15.1-31.3,19.5-46.9c2.8-9.9,5.4-20.6,6.3-31.3
		C858.5,418.6,871.9,418.8,884,419.9z"/>
</g>
<g>
	<path class="st11" d="M813.7,566.2c-2.4,3.2-3.5,7.2-3,11.2c0.1,1.2,0.3,2.3,0.4,3.5c-12.6,1.1-25.8,2.5-39.5,4.3
		c-0.3-2.6-0.7-5.2-1-7.8c-0.5-4,0.5-8,3-11.2c8.3-10.7,28.2-38,44.5-69c1-0.1,2-0.1,3-0.2c1.6-0.1,3.1-0.2,4.7-0.3
		c1.7-0.1,3.4-0.2,5-0.3c0.8-0.1,1.7-0.1,2.5-0.1c0.4,0,0.8-0.1,1.1-0.1c2.1-0.1,4.2-0.2,6.2-0.3c0.8,0,1.6-0.1,2.4-0.1
		c1,0,2-0.1,2.9-0.1c1.4,0,2.8-0.1,4.2-0.1c2.9,0,5.9-0.1,8.7-0.1C842.5,527.3,822,555.2,813.7,566.2z"/>
</g>
<g>
	<path class="st9" d="M823.1,704.7c1.3,38.5-0.2,78.5-17,113.9c-15,31.7-42.2,67.7-75.8,77.6c-43.3,12.8-68.6,14.1-95.4,11.7
		c15.4-1.6,33-5.1,55.4-11.7c33.6-9.8,60.8-45.9,75.8-77.6c16.8-35.4,18.3-75.4,17-113.9c-1.3-40.1-6.4-79.8-11.4-119.5
		c13.7-1.8,26.9-3.2,39.5-4.3C816.3,622,821.7,663.3,823.1,704.7z"/>
</g>
<g>
	<path class="st9" d="M859,495.6c-2.9,0-5.8,0-8.7,0.1C853.2,495.6,856.2,495.5,859,495.6z"/>
</g>
<g>
	<circle class="st12" cx="385.1" cy="477.8" r="16.7"/>
</g>
<g>
	<circle class="st12" cx="656.3" cy="477.8" r="16.7"/>
</g>
<g>
	<path class="st13" d="M300.6,919.1c-55.8,0-106.6-36.9-121.8-92.2c-20.9-76.3,2.6-171.1,13.7-208.3c1.6-5.4,0.9-11.1-2-15.9
		c-31.4-51.9-51.6-97.1-60.1-134.1c-5.7-24.5,2.3-49.1,21.3-65.7c19-16.6,44.4-21.2,68-12.3l0.4,0.1c0.1,0.1,0.3,0.1,0.4,0.2
		l0.6,0.2c9.5,3.2,20-2.3,23.3-12.2c1.3-3.9,5.6-6,9.5-4.7c3.9,1.3,6,5.6,4.7,9.5c-5.9,17.6-24.7,27.2-42,21.7
		c-0.5-0.1-1.2-0.3-2.1-0.7c-0.1,0-0.3-0.1-0.4-0.2c-18.3-6.8-37.9-3.2-52.6,9.7c-14.7,12.9-20.9,32-16.5,51
		c8.2,35.5,27.8,79.1,58.3,129.7c5.1,8.3,6.4,18.5,3.6,27.9c-10.7,36-33.6,127.5-13.7,200.1c15.4,56.3,72.8,90.9,130.5,78.7
		c29.2-6.1,81.1-13.4,163-13.4c56.9,0,91.6,4.7,119.5,8.5c40.4,5.5,64.8,8.8,121.8-7.8c31.1-9.1,57.1-44,71.1-73.6
		c1.8-3.7,6.2-5.3,10-3.6c3.7,1.8,5.3,6.2,3.6,10c-7.5,15.8-35.4,68.4-80.5,81.6c-60,17.6-87.1,13.9-128,8.3
		c-27.5-3.7-61.6-8.4-117.5-8.4c-80.6,0-131.5,7.1-160,13C318,918.2,309.2,919.1,300.6,919.1z"/>
</g>
<g>
	<path class="st13" d="M823.2,711.9c-4,0-7.4-3.2-7.5-7.3c-1.3-38.8-6.2-78-11-115.9l-1.3-10.7c-0.8-6.1,0.8-12,4.5-16.8
		c11.3-14.7,49.5-66.6,62.7-113.3c6.4-22.9,10.8-46.7-0.3-65.4c-12.7-21.3-33.8-30.7-55.3-24.4c-10.1,3-20.4,7.5-30.4,13.4
		c-4.6,2.7-10,3.1-15,1.2c-5-1.9-8.8-6-10.4-11.1c-17.1-56-37.3-102-60.2-136.6c-26.4-40-56.6-65.3-89.8-75
		c-24.6-7.2-42.5-25.3-58.3-41.2c-22.5-22.6-37.4-36-59.9-28c-8,2.9-16.9,8.5-26.4,16.8c-26.1,22.7-53.8,44.3-82.3,64.3
		c-6,4.2-12.1,8.1-18.1,11.9c-20.6,13.2-40.1,25.7-51.1,48c-1.8,3.7-6.3,5.2-10.1,3.4c-3.7-1.8-5.2-6.3-3.4-10.1
		c12.9-26,35-40.2,56.5-53.9c5.8-3.7,11.8-7.6,17.5-11.6c28.1-19.7,55.4-41,81.1-63.3c11.1-9.6,21.3-16,31.2-19.6
		c32.7-11.7,54.5,10.2,75.6,31.5c15.3,15.3,31,31.2,51.9,37.4c67.4,19.8,121.3,94.4,160.1,221.6c0.3,1,1,1.4,1.5,1.6
		c0.5,0.2,1.2,0.3,2-0.2c11-6.5,22.4-11.4,33.7-14.8c27.9-8.1,56.3,4.1,72.4,31.2c14.1,23.6,8.9,52.3,1.9,77.2
		c-14,49.3-53.5,103.1-65.3,118.4c-1.2,1.6-1.8,3.6-1.5,5.7l1.3,10.7c4.8,38.3,9.8,77.8,11.1,117.3c0.1,4.1-3.1,7.6-7.3,7.7
		C823.4,711.9,823.3,711.9,823.2,711.9z"/>
</g>
<g>
	<path class="st9" d="M262.7,834.5c-1.8,0-3.7-0.7-5.1-2.1c-4.5-4.3-10.5-15-17.5-60.9c-3.8-24.5-6-47.9-6.1-48.1
		c-0.4-4.1,2.6-7.8,6.7-8.2c4.1-0.4,7.8,2.6,8.2,6.7c0,0.2,2.2,23.2,5.9,47.2c6.9,45.3,12.5,51.8,13.1,52.4
		c2.9,2.9,3.1,7.6,0.2,10.6C266.6,833.7,264.6,834.5,262.7,834.5z"/>
</g>
<g>
	
		<ellipse transform="matrix(0.9797 -0.2003 0.2003 0.9797 -135.8486 62.4811)" class="st9" cx="240.8" cy="702.6" rx="7.8" ry="7.8"/>
</g>
<g>
	
		<ellipse transform="matrix(0.8634 -0.5046 0.5046 0.8634 -15.7958 355.0824)" class="st6" cx="647.7" cy="206.7" rx="7.8" ry="7.8"/>
</g>
<g>
	<path class="st6" d="M552.5,155.1c0,0,48.1,0.4,78.7,34.3"/>
	<path class="st6" d="M631.2,196.9c-2,0-4.1-0.8-5.6-2.5c-27.9-30.9-72.8-31.8-73.2-31.8c-4.1,0-7.5-3.4-7.4-7.6
		c0-4.1,3.4-7.4,7.5-7.4c0,0,0,0,0.1,0c2.1,0,51.8,0.8,84.2,36.8c2.8,3.1,2.5,7.8-0.5,10.6C634.8,196.3,633,196.9,631.2,196.9z"/>
</g>
<g>
	<path class="st13" d="M263.4,361.5c-1.8,0-3.6-0.7-5.1-2c-3-2.8-3.2-7.4-0.5-10.5c4.7-6.5,20.1-60.4,32.3-108.9
		c1-4,5.1-6.5,9.1-5.4c4,1,6.5,5.1,5.4,9.1c-0.1,0.3-6.6,26.2-14,52.9c-15.5,55.6-19.7,60.1-21.7,62.3
		C267.5,360.7,265.4,361.5,263.4,361.5z M257.9,348.9C257.9,348.9,257.9,349,257.9,348.9C257.9,349,257.9,348.9,257.9,348.9z"/>
</g>
<g>
	<path class="st13" d="M813.8,806.2c-0.9,0-1.9-0.2-2.8-0.5c-3.8-1.5-5.7-5.9-4.2-9.8c8.8-22,9.1-72.1,9.1-72.6
		c0-4.1,3.4-7.5,7.5-7.5c0,0,0,0,0,0c4.1,0,7.5,3.4,7.5,7.5c0,2.2-0.2,53.5-10.1,78.2C819.6,804.4,816.8,806.2,813.8,806.2z"/>
</g>
<g>
	<g>
		<path class="st13" d="M517.3,464.9c-3.6,0-7.3-0.3-11.1-0.9l-0.2,0c-4.5-0.8-10.6-1.8-15.2-6.4c-2.9-2.9-2.9-7.7,0-10.6
			c2.9-2.9,7.7-2.9,10.6,0c1.2,1.2,4.5,1.7,7.1,2.2l0.2,0c4.1,0.7,8.1,0.9,11.9,0.6c5.8-0.4,11.2-2,15.7-4.7
			c3.6-2.1,8.2-0.9,10.3,2.7c2.1,3.6,0.9,8.2-2.7,10.3c-6.4,3.8-14.1,6.1-22.1,6.7C520.3,464.9,518.8,464.9,517.3,464.9z"/>
	</g>
</g>
<circle class="st13" cx="452.1" cy="397.8" r="19"/>
<circle class="st13" cx="579.8" cy="397.8" r="19"/>
</svg>
