<?xml version="1.0" encoding="UTF-8"?>
<svg xmlns="http://www.w3.org/2000/svg" xmlns:xlink="http://www.w3.org/1999/xlink" width="150px" height="150px" viewBox="0 0 150 150" version="1.1">
<g id="surface1">
<path style=" stroke:none;fill-rule:nonzero;fill:rgb(96.078431%,71.372549%,9.803922%);fill-opacity:1;" d="M 106.664062 28.695312 C 93.480469 30.898438 78.179688 34.273438 63.164062 36.945312 C 57.628906 37.933594 52.621094 38.191406 48.105469 37.949219 C 48.691406 36.164062 49.351562 34.425781 50.191406 32.746094 C 51.628906 29.835938 53.910156 27.988281 56.398438 26.308594 C 58.558594 26.128906 60.824219 25.84375 63.164062 25.425781 C 73.066406 23.65625 83.070312 21.601562 92.519531 19.769531 C 93.554688 20.460938 94.679688 21.03125 95.925781 21.390625 C 100.003906 22.605469 103.558594 25.183594 106.664062 28.695312 Z M 106.664062 28.695312 "/>
<path style=" stroke:none;fill-rule:nonzero;fill:rgb(95.686275%,92.941176%,30.980392%);fill-opacity:1;" d="M 113.910156 40.066406 C 99.285156 42.089844 81.03125 46.246094 63.164062 49.441406 C 56.039062 50.714844 49.769531 50.789062 44.308594 50.101562 L 46.410156 43.753906 C 46.933594 41.820312 47.476562 39.871094 48.089844 37.964844 C 52.605469 38.21875 57.613281 37.949219 63.148438 36.960938 C 78.164062 34.273438 93.464844 30.914062 106.648438 28.710938 C 109.425781 31.828125 111.824219 35.714844 113.910156 40.066406 Z M 113.910156 40.066406 "/>
<path style=" stroke:none;fill-rule:nonzero;fill:rgb(65.490196%,81.176471%,35.686275%);fill-opacity:1;" d="M 119.023438 50.941406 C 103.679688 52.589844 83.175781 57.375 63.164062 60.945312 C 54.089844 62.566406 46.425781 62.234375 40.035156 60.886719 C 40.90625 59.699219 41.59375 58.199219 41.941406 57.195312 L 44.308594 50.101562 C 49.769531 50.789062 56.039062 50.714844 63.164062 49.441406 C 81.03125 46.246094 99.285156 42.089844 113.910156 40.066406 C 115.15625 42.660156 116.296875 45.421875 117.316406 48.269531 C 117.691406 49.304688 118.273438 50.203125 119.023438 50.941406 Z M 119.023438 50.941406 "/>
<path style=" stroke:none;fill-rule:nonzero;fill:rgb(54.117647%,81.568627%,89.019608%);fill-opacity:1;" d="M 125.488281 56.851562 C 126.585938 58.679688 126.796875 60.765625 126.613281 62.851562 C 110.910156 63.328125 86.699219 69.210938 63.164062 73.410156 C 45.511719 76.558594 33.148438 72.359375 25.304688 67.546875 C 27.058594 63.34375 31.949219 60.765625 36.765625 62.578125 C 36.796875 62.59375 36.808594 62.59375 36.839844 62.609375 C 36.898438 62.640625 36.960938 62.65625 37.019531 62.671875 C 38.054688 63.015625 39.136719 62.113281 40.035156 60.886719 C 46.410156 62.234375 54.089844 62.566406 63.164062 60.945312 C 83.175781 57.375 103.679688 52.589844 119.023438 50.941406 C 119.851562 51.75 120.855469 52.335938 121.933594 52.664062 C 121.933594 52.664062 121.921875 52.664062 121.921875 52.664062 C 121.648438 52.738281 121.394531 52.828125 121.125 52.921875 C 122.894531 53.65625 124.425781 55.035156 125.488281 56.851562 Z M 125.488281 56.851562 "/>
<path style=" stroke:none;fill-rule:nonzero;fill:rgb(54.117647%,81.568627%,89.019608%);fill-opacity:1;" d="M 136.726562 63.628906 C 135.480469 63.316406 134.101562 63.105469 132.585938 62.984375 C 132.796875 60.855469 132.601562 58.710938 131.476562 56.835938 C 130.230469 54.734375 128.371094 53.203125 126.226562 52.605469 C 130.109375 51.523438 133.679688 53.429688 135.691406 56.804688 C 136.949219 58.875 137.054688 61.273438 136.726562 63.628906 Z M 136.726562 63.628906 "/>
<path style=" stroke:none;fill-rule:nonzero;fill:rgb(46.666667%,77.647059%,69.019608%);fill-opacity:1;" d="M 63.164062 73.410156 C 86.699219 69.210938 110.910156 63.328125 126.613281 62.851562 C 126.464844 64.453125 126.074219 66.058594 125.671875 67.546875 C 125.011719 69.871094 123.945312 72.300781 122.746094 74.578125 C 121.769531 74.65625 120.765625 74.746094 119.730469 74.851562 C 119.476562 74.878906 119.21875 74.910156 118.949219 74.925781 C 115.695312 75.269531 112.199219 75.765625 108.523438 76.363281 C 108.359375 76.394531 108.195312 76.425781 108.03125 76.441406 C 107.773438 76.484375 107.503906 76.53125 107.234375 76.574219 C 105.316406 76.890625 103.363281 77.234375 101.355469 77.59375 C 101.011719 77.65625 100.648438 77.714844 100.304688 77.789062 C 99.960938 77.851562 99.601562 77.925781 99.238281 77.984375 C 98.851562 78.058594 98.445312 78.136719 98.054688 78.210938 C 97.425781 78.328125 96.796875 78.449219 96.148438 78.570312 C 96.105469 78.585938 96.058594 78.585938 96.015625 78.601562 C 95.414062 78.71875 94.828125 78.824219 94.230469 78.945312 C 93.914062 79.003906 93.585938 79.066406 93.269531 79.125 C 92.730469 79.230469 92.191406 79.335938 91.648438 79.441406 C 91.546875 79.453125 91.441406 79.484375 91.335938 79.5 C 90.703125 79.621094 90.074219 79.738281 89.445312 79.875 C 89.429688 79.875 89.398438 79.890625 89.386719 79.890625 C 88.726562 80.011719 88.078125 80.144531 87.421875 80.28125 C 87.34375 80.296875 87.285156 80.308594 87.210938 80.324219 C 86.609375 80.445312 86.023438 80.566406 85.425781 80.671875 C 85.273438 80.699219 85.109375 80.730469 84.960938 80.761719 C 84.585938 80.835938 84.210938 80.910156 83.835938 80.984375 C 83.699219 81.015625 83.566406 81.03125 83.429688 81.058594 C 82.09375 81.328125 80.761719 81.585938 79.410156 81.855469 C 78.976562 81.945312 78.554688 82.019531 78.136719 82.109375 C 77.371094 82.261719 76.605469 82.410156 75.839844 82.558594 C 75.34375 82.648438 74.851562 82.753906 74.355469 82.84375 C 73.679688 82.980469 73.003906 83.113281 72.328125 83.234375 C 70.636719 83.566406 68.941406 83.878906 67.246094 84.195312 C 66.269531 84.375 65.296875 84.554688 64.335938 84.734375 C 63.945312 84.808594 63.570312 84.871094 63.179688 84.945312 C 47.550781 87.71875 36.058594 84.75 28.199219 80.683594 C 26.460938 77.683594 25.441406 75.496094 24.855469 72.988281 C 24.40625 71.039062 24.613281 69.164062 25.304688 67.546875 C 33.148438 72.359375 45.511719 76.558594 63.164062 73.410156 Z M 63.164062 73.410156 "/>
<path style=" stroke:none;fill-rule:nonzero;fill:rgb(46.666667%,77.647059%,69.019608%);fill-opacity:1;" d="M 128.851562 74.339844 C 128.414062 74.339844 127.980469 74.339844 127.546875 74.355469 C 127.980469 74.339844 128.429688 74.324219 128.851562 74.339844 Z M 128.851562 74.339844 "/>
<path style=" stroke:none;fill-rule:nonzero;fill:rgb(46.666667%,77.647059%,69.019608%);fill-opacity:1;" d="M 136.726562 63.628906 C 136.546875 64.949219 136.214844 66.269531 135.871094 67.5 C 135.210938 69.824219 134.144531 72.238281 132.945312 74.519531 C 132.78125 74.503906 132.601562 74.488281 132.433594 74.476562 C 132.269531 74.460938 132.089844 74.445312 131.910156 74.429688 C 131.714844 74.414062 131.519531 74.398438 131.324219 74.398438 C 131.175781 74.386719 131.023438 74.386719 130.859375 74.371094 C 130.664062 74.355469 130.453125 74.355469 130.261719 74.355469 C 130.09375 74.355469 129.914062 74.339844 129.734375 74.339844 C 129.601562 74.339844 129.464844 74.339844 129.328125 74.339844 C 129.164062 74.339844 128.984375 74.339844 128.820312 74.339844 C 129.976562 72.121094 130.996094 69.796875 131.625 67.53125 C 132.03125 66.089844 132.40625 64.53125 132.570312 62.984375 C 134.101562 63.105469 135.496094 63.328125 136.726562 63.628906 Z M 136.726562 63.628906 "/>
<path style=" stroke:none;fill-rule:nonzero;fill:rgb(70.196078%,48.627451%,70.588235%);fill-opacity:1;" d="M 116.054688 84.929688 C 115.679688 85.410156 115.53125 86.011719 115.605469 86.609375 C 115.648438 87 115.695312 87.390625 115.753906 87.78125 C 100.828125 89.699219 81.78125 94.066406 63.164062 97.394531 C 50.746094 99.613281 40.949219 98.191406 33.496094 95.476562 C 33.734375 94.546875 33.976562 93.734375 34.15625 93.105469 C 34.484375 92.011719 34.335938 90.808594 33.734375 89.835938 C 31.363281 85.921875 29.566406 83.054688 28.199219 80.683594 C 36.058594 84.75 47.550781 87.71875 63.164062 84.929688 C 63.554688 84.855469 63.929688 84.796875 64.320312 84.71875 C 65.296875 84.539062 66.269531 84.375 67.230469 84.179688 C 68.925781 83.863281 70.621094 83.550781 72.316406 83.21875 C 72.988281 83.085938 73.664062 82.964844 74.339844 82.828125 C 74.835938 82.738281 75.328125 82.636719 75.824219 82.546875 C 76.589844 82.394531 77.355469 82.246094 78.121094 82.09375 C 78.554688 82.003906 78.976562 81.929688 79.394531 81.839844 C 80.398438 81.644531 81.40625 81.449219 82.410156 81.238281 C 82.738281 81.179688 83.085938 81.105469 83.414062 81.046875 C 83.550781 81.015625 83.683594 81 83.820312 80.96875 C 84.195312 80.894531 84.570312 80.820312 84.945312 80.746094 C 85.09375 80.714844 85.261719 80.683594 85.410156 80.65625 C 86.011719 80.535156 86.59375 80.414062 87.195312 80.308594 C 87.269531 80.296875 87.328125 80.28125 87.40625 80.265625 C 88.066406 80.128906 88.726562 80.011719 89.371094 79.875 C 89.386719 79.875 89.414062 79.875 89.429688 79.859375 C 90.058594 79.738281 90.703125 79.621094 91.320312 79.484375 C 91.425781 79.46875 91.53125 79.441406 91.636719 79.425781 C 92.175781 79.320312 92.714844 79.214844 93.253906 79.109375 C 93.585938 79.050781 93.898438 78.988281 94.214844 78.929688 C 94.816406 78.808594 95.414062 78.703125 96 78.585938 C 96.046875 78.570312 96.089844 78.570312 96.136719 78.554688 C 96.765625 78.433594 97.410156 78.316406 98.039062 78.195312 C 98.445312 78.121094 98.835938 78.046875 99.226562 77.96875 C 99.585938 77.910156 99.929688 77.835938 100.289062 77.773438 C 100.648438 77.714844 100.996094 77.640625 101.339844 77.578125 C 103.335938 77.21875 105.300781 76.875 107.21875 76.558594 C 107.488281 76.515625 107.746094 76.46875 108.015625 76.425781 C 108.179688 76.394531 108.34375 76.363281 108.511719 76.351562 C 112.183594 75.765625 115.679688 75.269531 118.933594 74.910156 C 119.191406 74.878906 119.460938 74.851562 119.714844 74.835938 C 120.75 74.730469 121.738281 74.640625 122.730469 74.566406 C 120.285156 79.230469 117.300781 83.324219 116.054688 84.929688 Z M 116.054688 84.929688 "/>
<path style=" stroke:none;fill-rule:nonzero;fill:rgb(70.196078%,48.627451%,70.588235%);fill-opacity:1;" d="M 127.546875 74.339844 C 127.996094 74.324219 128.429688 74.324219 128.851562 74.324219 C 128.414062 74.324219 127.980469 74.339844 127.546875 74.339844 Z M 127.546875 74.339844 "/>
<path style=" stroke:none;fill-rule:nonzero;fill:rgb(70.196078%,48.627451%,70.588235%);fill-opacity:1;" d="M 126.269531 84.886719 C 125.910156 85.363281 125.746094 85.964844 125.820312 86.566406 C 125.835938 86.671875 125.851562 86.761719 125.863281 86.863281 C 124.53125 86.925781 123.136719 87.015625 121.679688 87.136719 C 121.648438 86.953125 121.636719 86.789062 121.621094 86.609375 C 121.546875 86.011719 121.710938 85.410156 122.070312 84.929688 C 123.316406 83.28125 126.390625 79.078125 128.863281 74.339844 C 129.046875 74.339844 129.210938 74.339844 129.375 74.339844 C 129.511719 74.339844 129.644531 74.339844 129.78125 74.339844 C 129.960938 74.339844 130.125 74.339844 130.304688 74.355469 C 130.5 74.355469 130.710938 74.371094 130.90625 74.371094 C 131.054688 74.371094 131.203125 74.386719 131.371094 74.398438 C 131.566406 74.414062 131.761719 74.414062 131.953125 74.429688 C 132.136719 74.445312 132.300781 74.460938 132.480469 74.476562 C 132.644531 74.488281 132.824219 74.503906 132.988281 74.519531 C 130.515625 79.183594 127.515625 83.28125 126.269531 84.886719 Z M 126.269531 84.886719 "/>
<path style=" stroke:none;fill-rule:nonzero;fill:rgb(100%,100%,100%);fill-opacity:1;" d="M 127.679688 105.660156 C 127.605469 103.214844 127.425781 100.769531 127.199219 98.339844 C 126.839844 94.515625 126.34375 90.691406 125.863281 86.863281 C 110.144531 87.511719 86.324219 93.269531 63.164062 97.394531 C 50.746094 99.613281 40.949219 98.191406 33.496094 95.476562 C 32.789062 98.144531 31.921875 101.941406 31.394531 106.171875 C 30.898438 110.085938 30.691406 114.375 31.140625 118.53125 C 31.335938 120.300781 31.648438 122.054688 32.101562 123.734375 C 33.03125 127.125 34.890625 130.003906 37.351562 132.195312 C 41.460938 135.871094 47.234375 137.566406 52.996094 136.351562 C 57.660156 135.375 65.339844 134.371094 77.21875 134.371094 C 98.21875 134.371094 99.046875 138.734375 113.730469 134.429688 C 118.769531 132.960938 122.851562 127.546875 125.101562 122.789062 C 125.160156 122.65625 125.21875 122.519531 125.28125 122.386719 C 126.914062 118.738281 127.53125 114.78125 127.679688 110.789062 C 127.753906 109.078125 127.738281 107.371094 127.679688 105.660156 Z M 127.679688 105.660156 "/>
<path style=" stroke:none;fill-rule:nonzero;fill:rgb(92.156863%,36.078431%,16.078431%);fill-opacity:1;" d="M 92.519531 19.785156 C 83.070312 21.613281 73.050781 23.683594 63.164062 25.441406 C 60.808594 25.859375 58.558594 26.144531 56.398438 26.324219 C 57.871094 25.335938 59.414062 24.40625 60.929688 23.355469 C 65.175781 20.386719 69.269531 17.191406 73.183594 13.785156 C 74.789062 12.390625 76.214844 11.519531 77.503906 11.054688 C 83.730469 8.820312 86.894531 16.066406 92.519531 19.785156 Z M 92.519531 19.785156 "/>
<path style=" stroke:none;fill-rule:nonzero;fill:rgb(45.490196%,68.235294%,74.509804%);fill-opacity:1;" d="M 132.601562 62.984375 C 130.785156 62.835938 128.773438 62.789062 126.613281 62.863281 C 126.808594 60.78125 126.585938 58.695312 125.488281 56.863281 C 124.425781 55.050781 122.894531 53.671875 121.125 52.933594 C 121.394531 52.84375 121.648438 52.753906 121.921875 52.679688 C 121.921875 52.679688 121.933594 52.679688 121.933594 52.679688 C 123.226562 53.070312 124.648438 53.101562 126.046875 52.679688 C 126.074219 52.664062 126.105469 52.664062 126.136719 52.648438 C 126.164062 52.636719 126.210938 52.636719 126.238281 52.621094 C 128.398438 53.21875 130.246094 54.75 131.488281 56.851562 C 132.613281 58.710938 132.808594 60.855469 132.601562 62.984375 Z M 132.601562 62.984375 "/>
<path style=" stroke:none;fill-rule:nonzero;fill:rgb(82.745098%,81.960784%,82.352941%);fill-opacity:1;" d="M 121.933594 52.664062 C 123.433594 52.230469 124.890625 52.230469 126.238281 52.605469 C 126.210938 52.621094 126.164062 52.621094 126.136719 52.636719 C 126.105469 52.648438 126.074219 52.648438 126.046875 52.664062 C 124.648438 53.085938 123.226562 53.054688 121.933594 52.664062 Z M 121.933594 52.664062 "/>
<path style=" stroke:none;fill-rule:nonzero;fill:rgb(39.215686%,65.098039%,58.039216%);fill-opacity:1;" d="M 132.601562 62.984375 C 132.449219 64.546875 132.058594 66.089844 131.65625 67.53125 C 131.011719 69.78125 130.003906 72.121094 128.851562 74.339844 C 128.429688 74.339844 127.980469 74.339844 127.546875 74.355469 C 127.335938 74.355469 127.125 74.355469 126.914062 74.371094 C 126.765625 74.371094 126.628906 74.371094 126.480469 74.386719 C 126.359375 74.386719 126.238281 74.386719 126.121094 74.398438 C 125.820312 74.414062 125.503906 74.429688 125.191406 74.445312 C 125.128906 74.445312 125.070312 74.445312 125.023438 74.460938 C 124.90625 74.460938 124.785156 74.476562 124.648438 74.476562 C 124.394531 74.488281 124.15625 74.503906 123.898438 74.519531 C 123.660156 74.535156 123.433594 74.550781 123.195312 74.566406 C 123.046875 74.578125 122.894531 74.578125 122.746094 74.59375 C 123.945312 72.316406 125.011719 69.898438 125.671875 67.558594 C 126.089844 66.074219 126.480469 64.46875 126.613281 62.863281 C 128.773438 62.789062 130.785156 62.820312 132.601562 62.984375 Z M 132.601562 62.984375 "/>
<path style=" stroke:none;fill-rule:nonzero;fill:rgb(58.039216%,40.392157%,58.823529%);fill-opacity:1;" d="M 122.054688 84.929688 C 121.695312 85.410156 121.53125 86.011719 121.605469 86.609375 C 121.621094 86.789062 121.648438 86.953125 121.664062 87.136719 C 119.773438 87.300781 117.796875 87.511719 115.738281 87.78125 C 115.695312 87.390625 115.636719 87 115.589844 86.609375 C 115.515625 86.011719 115.664062 85.410156 116.039062 84.929688 C 117.285156 83.324219 120.269531 79.230469 122.714844 74.578125 C 122.863281 74.566406 123.015625 74.566406 123.164062 74.550781 C 123.40625 74.535156 123.628906 74.519531 123.871094 74.503906 C 124.125 74.488281 124.378906 74.476562 124.621094 74.460938 C 124.738281 74.445312 124.875 74.445312 124.996094 74.445312 C 125.054688 74.445312 125.113281 74.429688 125.160156 74.429688 C 125.476562 74.414062 125.789062 74.398438 126.089844 74.386719 C 126.210938 74.386719 126.328125 74.371094 126.449219 74.371094 C 126.601562 74.371094 126.75 74.355469 126.886719 74.355469 C 127.09375 74.355469 127.304688 74.339844 127.515625 74.339844 C 127.949219 74.339844 128.398438 74.324219 128.820312 74.324219 C 126.375 79.09375 123.300781 83.28125 122.054688 84.929688 Z M 122.054688 84.929688 "/>
<path style=" stroke:none;fill-rule:nonzero;fill:rgb(82.745098%,81.960784%,82.352941%);fill-opacity:1;" d="M 123.464844 105.703125 C 123.660156 111.480469 123.433594 117.480469 120.914062 122.789062 C 118.664062 127.546875 114.585938 132.945312 109.546875 134.429688 C 103.050781 136.351562 99.253906 136.546875 95.234375 136.183594 C 97.546875 135.945312 100.183594 135.421875 103.546875 134.429688 C 108.585938 132.960938 112.664062 127.546875 114.914062 122.789062 C 117.433594 117.480469 117.660156 111.480469 117.464844 105.703125 C 117.269531 99.691406 116.503906 93.734375 115.753906 87.78125 C 117.808594 87.511719 119.789062 87.300781 121.679688 87.136719 C 122.445312 93.300781 123.253906 99.496094 123.464844 105.703125 Z M 123.464844 105.703125 "/>
<path style=" stroke:none;fill-rule:nonzero;fill:rgb(82.745098%,81.960784%,82.352941%);fill-opacity:1;" d="M 128.851562 74.339844 C 128.414062 74.339844 127.980469 74.339844 127.546875 74.355469 C 127.980469 74.339844 128.429688 74.324219 128.851562 74.339844 Z M 128.851562 74.339844 "/>
<path style=" stroke:none;fill-rule:nonzero;fill:rgb(93.72549%,54.901961%,64.313725%);fill-opacity:1;" d="M 60.269531 71.671875 C 60.269531 73.054688 59.148438 74.175781 57.765625 74.175781 C 56.382812 74.175781 55.261719 73.054688 55.261719 71.671875 C 55.261719 70.285156 56.382812 69.164062 57.765625 69.164062 C 59.148438 69.164062 60.269531 70.285156 60.269531 71.671875 Z M 60.269531 71.671875 "/>
<path style=" stroke:none;fill-rule:nonzero;fill:rgb(93.72549%,54.901961%,64.313725%);fill-opacity:1;" d="M 100.949219 71.671875 C 100.949219 73.054688 99.828125 74.175781 98.445312 74.175781 C 97.0625 74.175781 95.941406 73.054688 95.941406 71.671875 C 95.941406 70.285156 97.0625 69.164062 98.445312 69.164062 C 99.828125 69.164062 100.949219 70.285156 100.949219 71.671875 Z M 100.949219 71.671875 "/>
<path style=" stroke:none;fill-rule:nonzero;fill:rgb(33.72549%,33.72549%,33.72549%);fill-opacity:1;" d="M 45.089844 137.863281 C 36.71875 137.863281 29.101562 132.328125 26.820312 124.035156 C 23.683594 112.589844 27.210938 98.371094 28.875 92.789062 C 29.113281 91.980469 29.011719 91.125 28.574219 90.40625 C 23.863281 82.621094 20.835938 75.839844 19.558594 70.289062 C 18.703125 66.613281 19.90625 62.925781 22.753906 60.433594 C 25.605469 57.945312 29.414062 57.253906 32.953125 58.589844 L 33.015625 58.605469 C 33.03125 58.621094 33.058594 58.621094 33.074219 58.636719 L 33.164062 58.664062 C 34.589844 59.144531 36.164062 58.320312 36.660156 56.835938 C 36.855469 56.25 37.5 55.933594 38.085938 56.128906 C 38.671875 56.324219 38.984375 56.96875 38.789062 57.554688 C 37.90625 60.195312 35.085938 61.636719 32.488281 60.808594 C 32.414062 60.796875 32.308594 60.765625 32.175781 60.703125 C 32.160156 60.703125 32.128906 60.691406 32.113281 60.675781 C 29.371094 59.65625 26.429688 60.195312 24.226562 62.128906 C 22.019531 64.066406 21.089844 66.929688 21.75 69.78125 C 22.980469 75.105469 25.921875 81.644531 30.496094 89.234375 C 31.261719 90.480469 31.453125 92.011719 31.035156 93.421875 C 29.429688 98.820312 25.996094 112.546875 28.980469 123.433594 C 31.289062 131.878906 39.898438 137.070312 48.554688 135.238281 C 52.933594 134.324219 60.71875 133.230469 73.003906 133.230469 C 81.539062 133.230469 86.746094 133.933594 90.929688 134.503906 C 96.988281 135.328125 100.648438 135.824219 109.199219 133.335938 C 113.863281 131.96875 117.765625 126.734375 119.863281 122.296875 C 120.136719 121.738281 120.796875 121.5 121.363281 121.753906 C 121.921875 122.023438 122.160156 122.683594 121.90625 123.253906 C 120.78125 125.625 116.59375 133.515625 109.828125 135.496094 C 100.828125 138.136719 96.765625 137.578125 90.628906 136.738281 C 86.503906 136.183594 81.390625 135.480469 73.003906 135.480469 C 60.914062 135.480469 53.28125 136.546875 49.003906 137.429688 C 47.699219 137.730469 46.378906 137.863281 45.089844 137.863281 Z M 45.089844 137.863281 "/>
<path style=" stroke:none;fill-rule:nonzero;fill:rgb(33.72549%,33.72549%,33.72549%);fill-opacity:1;" d="M 123.480469 106.785156 C 122.878906 106.785156 122.371094 106.304688 122.355469 105.691406 C 122.160156 99.871094 121.425781 93.988281 120.703125 88.304688 L 120.511719 86.699219 C 120.390625 85.785156 120.628906 84.898438 121.183594 84.179688 C 122.878906 81.976562 128.609375 74.191406 130.589844 67.183594 C 131.550781 63.75 132.210938 60.179688 130.546875 57.375 C 128.640625 54.179688 125.476562 52.769531 122.25 53.714844 C 120.734375 54.164062 119.191406 54.839844 117.691406 55.726562 C 117 56.128906 116.191406 56.191406 115.441406 55.90625 C 114.691406 55.621094 114.121094 55.003906 113.878906 54.238281 C 111.316406 45.839844 108.285156 38.941406 104.851562 33.75 C 100.890625 27.75 96.359375 23.953125 91.378906 22.5 C 87.691406 21.421875 85.003906 18.703125 82.636719 16.320312 C 79.261719 12.929688 77.023438 10.921875 73.648438 12.121094 C 72.449219 12.554688 71.113281 13.394531 69.691406 14.640625 C 65.773438 18.046875 61.621094 21.285156 57.34375 24.285156 C 56.445312 24.914062 55.53125 25.5 54.628906 26.070312 C 51.539062 28.050781 48.613281 29.925781 46.964844 33.269531 C 46.695312 33.824219 46.019531 34.050781 45.449219 33.78125 C 44.894531 33.511719 44.671875 32.835938 44.941406 32.265625 C 46.875 28.363281 50.191406 26.234375 53.414062 24.179688 C 54.285156 23.625 55.183594 23.039062 56.039062 22.441406 C 60.253906 19.484375 64.351562 16.289062 68.203125 12.945312 C 69.871094 11.503906 71.398438 10.546875 72.886719 10.003906 C 77.789062 8.25 81.058594 11.535156 84.226562 14.730469 C 86.519531 17.023438 88.875 19.410156 92.011719 20.339844 C 102.121094 23.308594 110.203125 34.5 116.023438 53.578125 C 116.070312 53.730469 116.175781 53.789062 116.25 53.820312 C 116.324219 53.851562 116.429688 53.863281 116.550781 53.789062 C 118.199219 52.816406 119.910156 52.078125 121.605469 51.570312 C 125.789062 50.355469 130.050781 52.183594 132.464844 56.25 C 134.578125 59.789062 133.800781 64.09375 132.75 67.828125 C 130.648438 75.226562 124.726562 83.296875 122.953125 85.589844 C 122.773438 85.828125 122.683594 86.128906 122.730469 86.445312 L 122.925781 88.050781 C 123.644531 93.796875 124.394531 99.71875 124.589844 105.644531 C 124.605469 106.261719 124.125 106.785156 123.496094 106.800781 C 123.511719 106.785156 123.496094 106.785156 123.480469 106.785156 Z M 123.480469 106.785156 "/>
<path style=" stroke:none;fill-rule:nonzero;fill:rgb(82.745098%,81.960784%,82.352941%);fill-opacity:1;" d="M 39.40625 125.175781 C 39.136719 125.175781 38.851562 125.070312 38.640625 124.859375 C 37.964844 124.214844 37.066406 122.609375 36.015625 115.726562 C 35.445312 112.050781 35.113281 108.539062 35.101562 108.511719 C 35.039062 107.894531 35.488281 107.339844 36.105469 107.28125 C 36.71875 107.21875 37.273438 107.671875 37.335938 108.285156 C 37.335938 108.316406 37.664062 111.765625 38.21875 115.363281 C 39.253906 122.160156 40.09375 123.136719 40.183594 123.226562 C 40.621094 123.660156 40.648438 124.363281 40.214844 124.816406 C 39.988281 125.054688 39.691406 125.175781 39.40625 125.175781 Z M 39.40625 125.175781 "/>
<path style=" stroke:none;fill-rule:nonzero;fill:rgb(82.745098%,81.960784%,82.352941%);fill-opacity:1;" d="M 37.265625 105.152344 C 37.136719 104.519531 36.519531 104.113281 35.882812 104.242188 C 35.25 104.371094 34.84375 104.988281 34.972656 105.621094 C 35.101562 106.253906 35.71875 106.664062 36.351562 106.535156 C 36.988281 106.40625 37.394531 105.785156 37.265625 105.152344 Z M 37.265625 105.152344 "/>
<path style=" stroke:none;fill-rule:nonzero;fill:rgb(100%,100%,100%);fill-opacity:1;" d="M 98.167969 30.417969 C 97.84375 29.859375 97.125 29.671875 96.570312 29.996094 C 96.011719 30.324219 95.824219 31.039062 96.148438 31.597656 C 96.476562 32.15625 97.191406 32.34375 97.75 32.019531 C 98.308594 31.691406 98.496094 30.976562 98.167969 30.417969 Z M 98.167969 30.417969 "/>
<path style=" stroke:none;fill-rule:nonzero;fill:rgb(100%,100%,100%);fill-opacity:1;" d="M 82.875 23.265625 C 82.875 23.265625 90.089844 23.324219 94.679688 28.410156 "/>
<path style=" stroke:none;fill-rule:nonzero;fill:rgb(100%,100%,100%);fill-opacity:1;" d="M 94.679688 29.535156 C 94.378906 29.535156 94.066406 29.414062 93.839844 29.160156 C 89.65625 24.523438 82.921875 24.390625 82.859375 24.390625 C 82.246094 24.390625 81.734375 23.878906 81.75 23.25 C 81.75 22.636719 82.261719 22.140625 82.875 22.140625 C 82.875 22.140625 82.875 22.140625 82.890625 22.140625 C 83.203125 22.140625 90.660156 22.261719 95.519531 27.660156 C 95.941406 28.125 95.894531 28.828125 95.445312 29.25 C 95.21875 29.445312 94.949219 29.535156 94.679688 29.535156 Z M 94.679688 29.535156 "/>
<path style=" stroke:none;fill-rule:nonzero;fill:rgb(33.72549%,33.72549%,33.72549%);fill-opacity:1;" d="M 39.511719 54.226562 C 39.238281 54.226562 38.96875 54.121094 38.746094 53.925781 C 38.296875 53.503906 38.265625 52.816406 38.671875 52.351562 C 39.375 51.375 41.683594 43.289062 43.515625 36.015625 C 43.664062 35.414062 44.28125 35.039062 44.878906 35.203125 C 45.480469 35.355469 45.855469 35.96875 45.691406 36.570312 C 45.675781 36.613281 44.699219 40.5 43.589844 44.503906 C 41.265625 52.84375 40.636719 53.519531 40.335938 53.851562 C 40.125 54.105469 39.808594 54.226562 39.511719 54.226562 Z M 38.683594 52.335938 C 38.683594 52.335938 38.683594 52.351562 38.683594 52.335938 C 38.683594 52.351562 38.683594 52.335938 38.683594 52.335938 Z M 38.683594 52.335938 "/>
<path style=" stroke:none;fill-rule:nonzero;fill:rgb(33.72549%,33.72549%,33.72549%);fill-opacity:1;" d="M 122.070312 120.929688 C 121.933594 120.929688 121.785156 120.898438 121.648438 120.855469 C 121.078125 120.628906 120.796875 119.96875 121.019531 119.386719 C 122.339844 116.085938 122.386719 108.570312 122.386719 108.496094 C 122.386719 107.878906 122.894531 107.371094 123.511719 107.371094 C 124.125 107.371094 124.636719 107.878906 124.636719 108.496094 C 124.636719 108.824219 124.605469 116.519531 123.121094 120.226562 C 122.941406 120.660156 122.519531 120.929688 122.070312 120.929688 Z M 122.070312 120.929688 "/>
<path style=" stroke:none;fill-rule:nonzero;fill:rgb(33.72549%,33.72549%,33.72549%);fill-opacity:1;" d="M 77.59375 69.734375 C 77.054688 69.734375 76.5 69.691406 75.929688 69.601562 L 75.898438 69.601562 C 75.226562 69.480469 74.308594 69.328125 73.621094 68.640625 C 73.183594 68.203125 73.183594 67.484375 73.621094 67.050781 C 74.054688 66.613281 74.773438 66.613281 75.210938 67.050781 C 75.390625 67.230469 75.886719 67.304688 76.273438 67.378906 L 76.304688 67.378906 C 76.921875 67.484375 77.519531 67.515625 78.089844 67.46875 C 78.960938 67.410156 79.769531 67.171875 80.445312 66.765625 C 80.984375 66.449219 81.675781 66.628906 81.988281 67.171875 C 82.304688 67.710938 82.125 68.398438 81.585938 68.714844 C 80.625 69.285156 79.46875 69.628906 78.269531 69.71875 C 78.046875 69.734375 77.820312 69.734375 77.59375 69.734375 Z M 77.59375 69.734375 "/>
<path style=" stroke:none;fill-rule:nonzero;fill:rgb(33.72549%,33.72549%,33.72549%);fill-opacity:1;" d="M 70.664062 59.671875 C 70.664062 61.242188 69.390625 62.519531 67.816406 62.519531 C 66.242188 62.519531 64.964844 61.242188 64.964844 59.671875 C 64.964844 58.097656 66.242188 56.820312 67.816406 56.820312 C 69.390625 56.820312 70.664062 58.097656 70.664062 59.671875 Z M 70.664062 59.671875 "/>
<path style=" stroke:none;fill-rule:nonzero;fill:rgb(33.72549%,33.72549%,33.72549%);fill-opacity:1;" d="M 89.820312 59.671875 C 89.820312 61.242188 88.542969 62.519531 86.96875 62.519531 C 85.394531 62.519531 84.121094 61.242188 84.121094 59.671875 C 84.121094 58.097656 85.394531 56.820312 86.96875 56.820312 C 88.542969 56.820312 89.820312 58.097656 89.820312 59.671875 Z M 89.820312 59.671875 "/>
</g>
</svg>
